name E:\Dropbox\SEL\BOX\Experiment\240124_SUB1_PJH\c3d\XYZ\UpDown_TrcMot\15_10_trial2_D1_ExtLoadAPP1.mot
datacolumns 37
datarows 9
range 8.15 8.158
endheader

time	    ground_force1_vx	    ground_force1_vy	    ground_force1_vz	    ground_force1_px	    ground_force1_py	    ground_force1_pz	    ground_torque1_x	    ground_torque1_y	    ground_torque1_z	    ground_force2_vx	    ground_force2_vy	    ground_force2_vz	    ground_force2_px	    ground_force2_py	    ground_force2_pz	    ground_torque2_x	    ground_torque2_y	    ground_torque2_z	      hand_force3_vx	      hand_force3_vy	      hand_force3_vz	      hand_force3_px	      hand_force3_py	      hand_force3_pz	      hand_torque3_x	      hand_torque3_y	      hand_torque3_z	      hand_force4_vx	      hand_force4_vy	      hand_force4_vz	      hand_force4_px	      hand_force4_py	      hand_force4_pz	      hand_torque4_x	      hand_torque4_y	      hand_torque4_z	
8.15	         32.77840077	        466.23752885	         -6.00055140	          0.22659290	          0.00000000	          0.26893899	          0.00000000	         -6.05235325	          0.00000000	        -34.03683795	        451.22468260	        -16.80536588	          0.57126421	          0.00000000	          0.25176291	          0.00000000	          3.38092910	          0.00000000	         -7.55646034	        -92.92856313	          4.26889092	          0.19114698	          0.52298845	          0.01352260	          0.00520829	         -0.71654046	          0.00799389	          0.42813157	        -90.54718548	         -5.85861334	          0.59279394	          0.52298845	          0.01480628	         -0.00142296	          0.20471298	         -0.00234002	
8.151	         32.85012985	        466.78641339	         -5.97933369	          0.22659252	          0.00000000	          0.26897322	          0.00000000	         -6.07047437	          0.00000000	        -34.04377576	        451.43253313	        -16.68720716	          0.57128512	          0.00000000	          0.25160395	          0.00000000	          3.38263974	          0.00000000	         -7.54053757	        -92.92606705	          4.24509056	          0.19109300	          0.52234495	          0.01328075	          0.00525028	         -0.71418783	          0.00751933	          0.41812992	        -90.51599807	         -5.88706706	          0.59276698	          0.52234495	          0.01458570	         -0.00143003	          0.20319275	         -0.00219860	
8.152	         32.92909700	        467.35171317	         -5.95552782	          0.22659217	          0.00000000	          0.26900949	          0.00000000	         -6.08878785	          0.00000000	        -34.05065152	        451.65469151	        -16.56582722	          0.57130513	          0.00000000	          0.25144690	          0.00000000	          3.38428650	          0.00000000	         -7.52528416	        -92.92644772	          4.22205903	          0.19103780	          0.52170450	          0.01303709	          0.00529255	         -0.71183701	          0.00704866	          0.40870669	        -90.48526812	         -5.91446890	          0.59274028	          0.52170450	          0.01436516	         -0.00143761	          0.20172290	         -0.00205937	
8.153	         33.01515902	        467.93229749	         -5.92918845	          0.22659181	          0.00000000	          0.26904766	          0.00000000	         -6.10728505	          0.00000000	        -34.05747058	        451.89164267	        -16.44139786	          0.57132421	          0.00000000	          0.25129194	          0.00000000	          3.38586829	          0.00000000	         -7.51074099	        -92.92985549	          4.19972524	          0.19098141	          0.52106710	          0.01279157	          0.00533509	         -0.70949468	          0.00658228	          0.39983557	        -90.45521440	         -5.94084862	          0.59271385	          0.52106710	          0.01414464	         -0.00144571	          0.20030691	         -0.00192232	
8.154	         33.10814970	        468.52698547	         -5.90038357	          0.22659139	          0.00000000	          0.26908755	          0.00000000	         -6.12595681	          0.00000000	        -34.06424027	        452.14383874	        -16.31410047	          0.57134233	          0.00000000	          0.25113920	          0.00000000	          3.38738413	          0.00000000	         -7.49694340	        -92.93642336	          4.17801495	          0.19092387	          0.52043274	          0.01254416	          0.00537786	         -0.70716715	          0.00612055	          0.39148721	        -90.42605014	         -5.96623972	          0.59268773	          0.52043274	          0.01392414	         -0.00145435	          0.19894816	         -0.00178746	
8.155	         33.20788042	        469.13455117	         -5.86919429	          0.22659086	          0.00000000	          0.26912901	          0.00000000	         -6.14479351	          0.00000000	        -34.07096992	        452.41169735	        -16.18412544	          0.57135948	          0.00000000	          0.25098886	          0.00000000	          3.38883319	          0.00000000	         -7.48392099	        -92.94626627	          4.15685099	          0.19086523	          0.51980141	          0.01229485	          0.00542085	         -0.70486040	          0.00566383	          0.38362931	        -90.39798196	         -5.99067953	          0.59266192	          0.51980141	          0.01370365	         -0.00146354	          0.19764990	         -0.00165475	
8.156	         33.31414100	        469.75372887	         -5.83571459	          0.22659019	          0.00000000	          0.26917188	          0.00000000	         -6.16378507	          0.00000000	        -34.07767074	        452.69559992	        -16.05167152	          0.57137562	          0.00000000	          0.25084106	          0.00000000	          3.39021479	          0.00000000	         -7.47169753	        -92.95948037	          4.13615347	          0.19080552	          0.51917310	          0.01204359	          0.00546403	         -0.70257996	          0.00521246	          0.37622676	        -90.37120886	         -6.01420909	          0.59263645	          0.51917310	          0.01348315	         -0.00147327	          0.19641523	         -0.00152419	
8.157	         33.42670047	        470.38321844	         -5.80005098	          0.22658934	          0.00000000	          0.26921599	          0.00000000	         -6.18292097	          0.00000000	        -34.08435586	        452.99589023	        -15.91694520	          0.57139074	          0.00000000	          0.25069593	          0.00000000	          3.39152841	          0.00000000	         -7.46029079	        -92.97614251	          4.11584012	          0.19074481	          0.51854781	          0.01179037	          0.00550738	         -0.70033098	          0.00476677	          0.36924185	        -90.34592119	         -6.03687312	          0.59261132	          0.51854781	          0.01326263	         -0.00148358	          0.19524714	         -0.00139577	
8.158	         33.54530802	        471.02169071	         -5.76232215	          0.22658826	          0.00000000	          0.26926116	          0.00000000	         -6.20219027	          0.00000000	        -34.09104019	        453.31287297	        -15.78016006	          0.57140484	          0.00000000	          0.25055361	          0.00000000	          3.39277370	          0.00000000	         -7.44971252	        -92.99630970	          4.09582650	          0.19068315	          0.51792552	          0.01153516	          0.00555087	         -0.69811816	          0.00432707	          0.36263441	        -90.32229971	         -6.05871994	          0.59258655	          0.51792552	          0.01304206	         -0.00149446	          0.19414844	         -0.00126945	
